<svg width="111" height="19" viewBox="0 0 111 19" fill="none" xmlns="http://www.w3.org/2000/svg">
<path d="M2.57764 18H0.233887V0.226562H2.57764V18ZM8.65674 4.79199L8.72998 6.45215C9.7391 5.18262 11.0575 4.54785 12.6851 4.54785C15.4764 4.54785 16.8843 6.12256 16.9087 9.27197V18H14.6504V9.25977C14.6423 8.30762 14.4225 7.60368 13.9912 7.14795C13.568 6.69222 12.9048 6.46436 12.0015 6.46436C11.269 6.46436 10.6261 6.65967 10.0728 7.05029C9.51937 7.44092 9.08805 7.95361 8.77881 8.58838V18H6.52051V4.79199H8.65674ZM28.0049 14.4966C28.0049 13.8862 27.7729 13.4142 27.3091 13.0806C26.8534 12.7388 26.0518 12.4458 24.9043 12.2017C23.765 11.9575 22.8576 11.6646 22.1821 11.3228C21.5148 10.981 21.0184 10.5741 20.6929 10.1021C20.3755 9.63005 20.2168 9.06852 20.2168 8.41748C20.2168 7.33512 20.6725 6.4196 21.584 5.6709C22.5036 4.9222 23.6755 4.54785 25.0996 4.54785C26.597 4.54785 27.8096 4.93441 28.7373 5.70752C29.6732 6.48063 30.1411 7.4694 30.1411 8.67383H27.8706C27.8706 8.05534 27.6061 7.5223 27.0771 7.07471C26.5563 6.62712 25.8971 6.40332 25.0996 6.40332C24.2777 6.40332 23.6348 6.58236 23.1709 6.94043C22.707 7.2985 22.4751 7.76644 22.4751 8.34424C22.4751 8.88949 22.6908 9.30046 23.1221 9.57715C23.5534 9.85384 24.3306 10.1183 25.4536 10.3706C26.5848 10.6229 27.5003 10.924 28.2002 11.2739C28.9001 11.6239 29.4168 12.047 29.7505 12.5435C30.0923 13.0317 30.2632 13.6299 30.2632 14.3379C30.2632 15.5179 29.7912 16.466 28.8472 17.1821C27.9032 17.8901 26.6784 18.2441 25.1729 18.2441C24.1149 18.2441 23.179 18.057 22.3652 17.6826C21.5514 17.3083 20.9126 16.7874 20.4487 16.1201C19.993 15.4447 19.7651 14.7163 19.7651 13.9351H22.0234C22.0641 14.6919 22.3652 15.2941 22.9268 15.7417C23.4964 16.1812 24.2451 16.4009 25.1729 16.4009C26.0273 16.4009 26.7109 16.23 27.2236 15.8882C27.7445 15.5382 28.0049 15.0744 28.0049 14.4966ZM36.269 1.59375V4.79199H38.7349V6.5376H36.269V14.7285C36.269 15.2575 36.3789 15.6562 36.5986 15.9248C36.8184 16.1852 37.1927 16.3154 37.7217 16.3154C37.9821 16.3154 38.3402 16.2666 38.7959 16.1689V18C38.2018 18.1628 37.624 18.2441 37.0625 18.2441C36.0534 18.2441 35.2925 17.939 34.7798 17.3286C34.2671 16.7183 34.0107 15.8516 34.0107 14.7285V6.5376H31.606V4.79199H34.0107V1.59375H36.269ZM49.5381 18C49.4079 17.7396 49.3021 17.2757 49.2207 16.6084C48.1709 17.6989 46.9176 18.2441 45.4609 18.2441C44.1589 18.2441 43.0887 17.8779 42.2505 17.1455C41.4204 16.4049 41.0054 15.4691 41.0054 14.3379C41.0054 12.9626 41.5262 11.8965 42.5679 11.1396C43.6177 10.3747 45.0907 9.99219 46.9868 9.99219H49.1841V8.95459C49.1841 8.1652 48.9481 7.53857 48.4761 7.07471C48.0041 6.6027 47.3083 6.3667 46.3887 6.3667C45.583 6.3667 44.9076 6.57015 44.3623 6.97705C43.8171 7.38395 43.5444 7.8763 43.5444 8.4541H41.2739C41.2739 7.79492 41.5059 7.16016 41.9697 6.5498C42.4417 5.93132 43.0765 5.44303 43.874 5.08496C44.6797 4.72689 45.5627 4.54785 46.5229 4.54785C48.0448 4.54785 49.237 4.93034 50.0996 5.69531C50.9622 6.45215 51.4098 7.49788 51.4424 8.83252V14.9116C51.4424 16.1242 51.597 17.0885 51.9062 17.8047V18H49.5381ZM45.7905 16.2788C46.4985 16.2788 47.1699 16.0957 47.8047 15.7295C48.4395 15.3633 48.8993 14.8872 49.1841 14.3013V11.5913H47.4141C44.6471 11.5913 43.2637 12.401 43.2637 14.0205C43.2637 14.7285 43.4997 15.2819 43.9717 15.6807C44.4437 16.0794 45.05 16.2788 45.7905 16.2788ZM65.1387 10.1509H57.6802V18H55.3364V0.226562H66.3472V2.15527H57.6802V8.23438H65.1387V10.1509ZM74.8677 6.81836C74.5259 6.76139 74.1556 6.73291 73.7568 6.73291C72.2757 6.73291 71.2707 7.36361 70.7417 8.625V18H68.4834V4.79199H70.6807L70.7173 6.31787C71.4578 5.13786 72.5076 4.54785 73.8667 4.54785C74.3062 4.54785 74.6398 4.60482 74.8677 4.71875V6.81836ZM76.1128 11.2739C76.1128 9.97998 76.3651 8.81624 76.8696 7.78271C77.3823 6.74919 78.0903 5.95166 78.9937 5.39014C79.9051 4.82861 80.9427 4.54785 82.1064 4.54785C83.9049 4.54785 85.3576 5.17041 86.4644 6.41553C87.5793 7.66064 88.1367 9.31673 88.1367 11.3838V11.5425C88.1367 12.8283 87.8885 13.9839 87.3921 15.0093C86.9038 16.0265 86.1999 16.82 85.2803 17.3896C84.3688 17.9593 83.319 18.2441 82.1309 18.2441C80.3405 18.2441 78.8879 17.6216 77.7729 16.3765C76.6662 15.1313 76.1128 13.4834 76.1128 11.4326V11.2739ZM78.3833 11.5425C78.3833 13.0073 78.721 14.1833 79.3965 15.0703C80.0801 15.9574 80.9915 16.4009 82.1309 16.4009C83.2783 16.4009 84.1898 15.9533 84.8652 15.0581C85.5407 14.1548 85.8784 12.8934 85.8784 11.2739C85.8784 9.82536 85.5326 8.65348 84.8408 7.7583C84.1572 6.85498 83.2458 6.40332 82.1064 6.40332C80.9915 6.40332 80.0923 6.84684 79.4087 7.73389C78.7251 8.62093 78.3833 9.89046 78.3833 11.5425ZM93.105 4.79199L93.1782 6.45215C94.1873 5.18262 95.5057 4.54785 97.1333 4.54785C99.9246 4.54785 101.333 6.12256 101.357 9.27197V18H99.0986V9.25977C99.0905 8.30762 98.8708 7.60368 98.4395 7.14795C98.0163 6.69222 97.353 6.46436 96.4497 6.46436C95.7173 6.46436 95.0744 6.65967 94.521 7.05029C93.9676 7.44092 93.5363 7.95361 93.2271 8.58838V18H90.9688V4.79199H93.105ZM107.827 1.59375V4.79199H110.292V6.5376H107.827V14.7285C107.827 15.2575 107.937 15.6562 108.156 15.9248C108.376 16.1852 108.75 16.3154 109.279 16.3154C109.54 16.3154 109.898 16.2666 110.354 16.1689V18C109.759 18.1628 109.182 18.2441 108.62 18.2441C107.611 18.2441 106.85 17.939 106.337 17.3286C105.825 16.7183 105.568 15.8516 105.568 14.7285V6.5376H103.164V4.79199H105.568V1.59375H107.827Z" fill="black"/>
</svg>
